# xmcd
#
# Track frame offsets:
#	150
#	2476
#	13642
#	24851
#	33878
#	49965
#	59863
#	72020
#	82241
#	93143
#	101858
#	111084
#	121597
#	142470
#	150947
#	165032
#	178464
#	190482
#
# Disc length: 2623 seconds
#
# Revision: 1
# Processed by: cddbd v1.5.1PL2 Copyright (c) Steve Scherf et al.
# Submitted via: audiograbber 1.83.01
#
DISCID=e90a3d12
DTITLE=Cwrkot - Live In Holland
DYEAR=2001
DGENRE=Bluegrass
TTITLE0=Fire on the Mountain
TTITLE1=Time of Parting
TTITLE2=Here Comes the Train
TTITLE3=Hamilton County Breakdown
TTITLE4=The Legend of the Rebel Soldier
TTITLE5=You are My Flower
TTITLE6=Back to Hancock County
TTITLE7=Windy Hill
TTITLE8=God Loves His Children
TTITLE9=Your Love is Dying
TTITLE10=Heaven's Getting Brighter
TTITLE11=Sinnerman
TTITLE12=Thirsty and out of Money
TTITLE13=Tennessee Blues
TTITLE14=My Home's across the Blue Ridge Mountains
TTITLE15=Little Maggie
TTITLE16=Roll in my Sweet Baby's Arms
TTITLE17=Durham's Reel
EXTD=
EXTT0=
EXTT1=
EXTT2=
EXTT3=
EXTT4=
EXTT5=
EXTT6=
EXTT7=
EXTT8=
EXTT9=
EXTT10=
EXTT11=
EXTT12=
EXTT13=
EXTT14=
EXTT15=
EXTT16=
EXTT17=
PLAYORDER=
